PathFileType        4      (X/Y/Z)      Static.trc         
DataRate	CameraRate	NumFrames	NumMarkers	Units	OrigDataRate	OrigDataStartFrame	OrigNumFrames
100.0	100.0	6	37	mm	100.0	167	267
Frame#	Time	T2			T10			MANU			LASI			RASI			SACR			LTHI			LKAX			LKD1			LKD2			LKNE			LTIB			LANK			LMED			LHEE			LTOE			LD1M			LD5M			RTHI			RKAX			RKD1			RKD2			RKNE			RTIB			RANK			RMED			RHEE			RTOE			RD1M			RD5M			RHJC			LHJC			RKJC			LKJC			MASI			RAJC			LAJC			
		X1	Y1	Z1	X2	Y2	Z2	X3	Y3	Z3	X4	Y4	Z4	X5	Y5	Z5	X6	Y6	Z6	X7	Y7	Z7	X8	Y8	Z8	X9	Y9	Z9	X10	Y10	Z10	X11	Y11	Z11	X12	Y12	Z12	X13	Y13	Z13	X14	Y14	Z14	X15	Y15	Z15	X16	Y16	Z16	X17	Y17	Z17	X18	Y18	Z18	X19	Y19	Z19	X20	Y20	Z20	X21	Y21	Z21	X22	Y22	Z22	X23	Y23	Z23	X24	Y24	Z24	X25	Y25	Z25	X26	Y26	Z26	X27	Y27	Z27	X28	Y28	Z28	X29	Y29	Z29	X30	Y30	Z30	X31	Y31	Z31	X32	Y32	Z32	X33	Y33	Z33	X34	Y34	Z34	X35	Y35	Z35	X36	Y36	Z36	X37	Y37	Z37	
167	1.66	275.72023	1105.33872	-0.9666	283.30576	920.90577	1.09114	389.31435	1086.15466	3.36004	427.70931	722.26976	-77.02843	432.57458	737.10533	95.44623	292.23324	770.57198	5.1675	387.4198	431.93059	-156.5026	384.66019	381.94312	-217.5338	475.60006	392.93102	-122.43845	407.65223	280.59093	-137.83026	385.01144	369.93632	-125.37871	319.08071	159.44502	-183.70782	295.05238	68.53207	-146.03005	316.44996	71.7034	-71.86702	245.57901	20.3759	-109.75313	421.82641	30.66446	-135.6132	416.99194	16.84738	-85.34152	381.52306	16.98953	-176.56614	403.24377	447.63973	167.9536	407.61565	355.90954	227.54583	480.50233	414.05328	122.19722	453.2476	284.8851	120.58446	399.63006	361.9757	129.63578	307.58258	148.43512	156.39817	293.55544	62.07026	112.17422	321.68516	69.42792	39.5399	250.85914	19.5219	68.52499	423.73215	28.55122	108.14777	414.04074	13.98071	52.67944	384.07973	15.38261	147.49238	371.43983	687.98505	79.16478	367.81858	676.94286	-49.20905	395.7761	364.90332	82.383	385.18907	363.8641	-78.77295	430.14195	729.68754	9.2089	305.24009	57.67193	75.68086	303.60634	62.18658	-109.76328	
168	1.67	275.55128	1105.33484	-0.95236	283.16699	920.88249	1.06353	389.17704	1086.19268	3.36056	427.73609	722.29959	-76.98461	432.50353	737.14212	95.4922	292.18999	770.55411	5.14097	387.43077	431.9342	-156.50406	384.61018	381.95081	-217.53616	475.58056	392.93242	-122.47146	407.63235	280.59078	-137.84308	384.99256	369.93674	-125.38073	319.0506	159.45159	-183.71684	295.04307	68.52499	-146.03399	316.4454	71.70177	-71.86807	245.57299	20.36462	-109.76175	421.82145	30.66981	-135.60861	416.98573	16.8477	-85.34366	381.52195	16.98891	-176.56213	403.15918	447.64887	167.97331	407.49488	355.92238	227.5698	480.43945	414.06568	122.26368	453.19103	284.89923	120.63806	399.56619	361.98628	129.65651	307.55848	148.44639	156.39709	293.55371	62.0738	112.17166	321.68801	69.42945	39.54311	250.86154	19.52314	68.51554	423.72965	28.55082	108.15207	414.04117	13.98197	52.68571	384.07817	15.38416	147.49377	371.39479	687.99814	79.17957	367.84636	676.95077	-49.19585	395.73963	364.91285	82.40143	385.18594	363.86093	-78.7755	430.11981	729.72086	9.2538	305.24165	57.67427	75.6807	303.59931	62.18219	-109.76577	
169	1.68	275.37456	1105.32695	-0.94115	283.03069	920.85643	1.03353	389.03477	1086.23205	3.35791	427.76877	722.32909	-76.94024	432.43526	737.17851	95.53834	292.15731	770.53811	5.11036	387.45151	431.9398	-156.50771	384.55113	381.96568	-217.53873	475.55829	392.93417	-122.51068	407.60828	280.59287	-137.86186	384.97101	369.93919	-125.38335	319.0198	159.45914	-183.72804	295.03331	68.519	-146.03795	316.43929	71.702	-71.87023	245.56691	20.35506	-109.7713	421.81622	30.67286	-135.60437	416.98125	16.84768	-85.34592	381.51997	16.98845	-176.55883	403.07698	447.65837	167.98989	407.36313	355.93427	227.59455	480.37123	414.07954	122.33499	453.13352	284.91476	120.69511	399.49804	361.9959	129.67705	307.53255	148.45855	156.39663	293.55001	62.07812	112.16894	321.69004	69.42984	39.54558	250.86704	19.52049	68.50774	423.726	28.55107	108.15547	414.03934	13.981	52.69271	384.076	15.38445	147.49487	371.35274	688.0123	79.19339	367.87944	676.9598	-49.18338	395.70214	364.9214	82.41943	385.18336	363.85722	-78.77901	430.10202	729.7538	9.29905	305.24181	57.67646	75.68008	303.59123	62.17934	-109.76882	
170	1.69	275.19164	1105.31259	-0.93135	282.90047	920.82512	1.0021	388.88821	1086.27272	3.3518	427.80635	722.35623	-76.89695	432.36808	737.21216	95.58173	292.13232	770.52391	5.07613	387.48714	431.94632	-156.51482	384.48739	381.98281	-217.54282	475.53702	392.93517	-122.55618	407.58337	280.59641	-137.88636	384.95024	369.94206	-125.38809	318.98965	159.46728	-183.74195	295.02506	68.51332	-146.04208	316.43196	71.70194	-71.87484	245.56082	20.34648	-109.78108	421.8111	30.67355	-135.60176	416.97765	16.84789	-85.34754	381.51773	16.98821	-176.55755	402.99792	447.66696	168.00306	407.2291	355.94484	227.61887	480.30101	414.09472	122.40543	453.08107	284.93146	120.75191	399.4301	362.00321	129.69577	307.50558	148.46922	156.39524	293.54552	62.08179	112.16581	321.69116	69.42882	39.54578	250.87546	19.51404	68.50205	423.72164	28.55175	108.15699	414.03629	13.97766	52.69811	384.07294	15.38318	147.49518	371.31127	688.0263	79.2032	367.91594	676.96894	-49.17382	395.6661	364.92713	82.4355	385.1843	363.85297	-78.78478	430.08722	729.78419	9.34239	305.24105	57.67767	75.67814	303.58321	62.17651	-109.77315	
171	1.7	275.00483	1105.29094	-0.9221	282.77931	920.7876	0.96988	388.73942	1086.31455	3.34226	427.84756	722.38001	-76.85677	432.30093	737.24182	95.61975	292.11099	770.51156	5.0393	387.53997	431.95281	-156.52643	384.42436	381.99706	-217.5497	475.52022	392.93484	-122.60723	407.56112	280.60057	-137.91545	384.93356	369.94396	-125.39638	318.96126	159.47571	-183.75891	295.01941	68.50745	-146.04701	316.42443	71.70032	-71.88305	245.55468	20.33845	-109.79044	421.80663	30.67241	-135.60174	416.97419	16.84998	-85.34803	381.51587	16.9882	-176.55928	402.92242	447.67419	168.01342	407.10152	355.95399	227.64138	480.23222	414.1112	122.46996	453.03774	284.94897	120.80468	399.36633	362.0078	129.7115	307.47857	148.47694	156.39163	293.54208	62.08397	112.16191	321.69169	69.42707	39.54284	250.88598	19.50513	68.49854	423.7179	28.55274	108.15593	414.03333	13.97299	52.7003	384.06957	15.38106	147.49408	371.26868	688.03929	79.20647	367.954	676.97751	-49.16932	395.63318	364.92948	82.44865	385.19106	363.84865	-78.79401	430.07425	729.81092	9.38149	305.24045	57.67782	75.67427	303.57625	62.17278	-109.77965	
172	1.71	274.81593	1105.26285	-0.91317	282.66887	920.74484	0.93696	388.59043	1086.35712	3.33138	427.89109	722.40009	-76.82014	432.23285	737.26677	95.65214	292.09124	770.5003	5.00015	387.60821	431.95764	-156.54168	384.36719	382.00419	-217.55884	475.50966	392.93237	-122.66081	407.54366	280.60346	-137.94553	384.92275	369.94343	-125.40768	318.93463	159.48381	-183.77718	295.01606	68.50165	-146.05258	316.41742	71.69626	-71.89394	245.54851	20.33083	-109.79873	421.80309	30.66968	-135.60328	416.97084	16.8545	-85.34646	381.51434	16.98771	-176.56306	402.85035	447.68004	168.02312	406.98795	355.9619	227.66182	480.16709	414.1279	122.52653	453.00385	284.96604	120.85165	399.30916	362.00974	129.7254	307.4527	148.48105	156.3868	293.54124	62.08408	112.15824	321.6918	69.42474	39.53836	250.8968	19.49609	68.49663	423.71634	28.55341	108.1532	414.03103	13.96876	52.69947	384.06697	15.3785	147.49196	371.22393	688.05038	79.20294	367.99231	676.98493	-49.17025	395.6033	364.9285	82.46022	385.20371	363.84419	-78.80596	430.06197	729.83343	9.416	305.24088	57.67671	75.66978	303.57059	62.16783	-109.78778	
